<svg width="25" height="25" viewBox="0 0 25 25" fill="none" xmlns="http://www.w3.org/2000/svg">
<path d="M12.5296 16.8452C12.2959 16.8457 12.0695 16.7643 11.8896 16.6152L5.88957 11.6152C5.68536 11.4455 5.55693 11.2016 5.53255 10.9372C5.50817 10.6727 5.58983 10.4095 5.75957 10.2052C5.92931 10.001 6.17322 9.87261 6.43765 9.84823C6.70208 9.82385 6.96536 9.90551 7.16957 10.0752L12.5296 14.5552L17.8896 10.2352C17.9919 10.1522 18.1096 10.0901 18.2359 10.0527C18.3622 10.0153 18.4947 10.0032 18.6258 10.0171C18.7568 10.0311 18.8838 10.0708 18.9994 10.1339C19.115 10.1971 19.2171 10.2825 19.2996 10.3852C19.3912 10.4881 19.4605 10.6087 19.5033 10.7396C19.5461 10.8704 19.5614 11.0087 19.5483 11.1458C19.5351 11.2829 19.4938 11.4157 19.4269 11.5361C19.36 11.6565 19.269 11.7617 19.1596 11.8452L13.1596 16.6752C12.9745 16.8008 12.7527 16.8606 12.5296 16.8452Z" fill="white"/>
</svg>
