<svg width="17" height="16" viewBox="0 0 17 16" fill="none" xmlns="http://www.w3.org/2000/svg">
<g clip-path="url(#clip0_0_1206)">
<path d="M0.578125 9.90002C0.710733 9.90002 0.83791 9.9527 0.931678 10.0465C1.02545 10.1402 1.07812 10.2674 1.07812 10.4V12.9C1.07812 13.1652 1.18348 13.4196 1.37102 13.6071C1.55855 13.7947 1.81291 13.9 2.07812 13.9H14.0781C14.3433 13.9 14.5977 13.7947 14.7852 13.6071C14.9728 13.4196 15.0781 13.1652 15.0781 12.9V10.4C15.0781 10.2674 15.1308 10.1402 15.2246 10.0465C15.3183 9.9527 15.4455 9.90002 15.5781 9.90002C15.7107 9.90002 15.8379 9.9527 15.9317 10.0465C16.0254 10.1402 16.0781 10.2674 16.0781 10.4V12.9C16.0781 13.4305 15.8674 13.9392 15.4923 14.3142C15.1173 14.6893 14.6086 14.9 14.0781 14.9H2.07812C1.54769 14.9 1.03898 14.6893 0.663911 14.3142C0.288839 13.9392 0.078125 13.4305 0.078125 12.9V10.4C0.078125 10.2674 0.130803 10.1402 0.224572 10.0465C0.31834 9.9527 0.445517 9.90002 0.578125 9.90002Z" fill="white"/>
<path d="M7.72378 1.14604C7.77023 1.09948 7.8254 1.06253 7.88615 1.03733C7.94689 1.01212 8.01201 0.999146 8.07778 0.999146C8.14355 0.999146 8.20867 1.01212 8.26941 1.03733C8.33016 1.06253 8.38533 1.09948 8.43178 1.14604L11.4318 4.14604C11.5257 4.23993 11.5784 4.36726 11.5784 4.50004C11.5784 4.63282 11.5257 4.76015 11.4318 4.85404C11.3379 4.94793 11.2106 5.00067 11.0778 5.00067C10.945 5.00067 10.8177 4.94793 10.7238 4.85404L8.57778 2.70704V11.5C8.57778 11.6326 8.5251 11.7598 8.43133 11.8536C8.33757 11.9474 8.21039 12 8.07778 12C7.94517 12 7.818 11.9474 7.72423 11.8536C7.63046 11.7598 7.57778 11.6326 7.57778 11.5V2.70704L5.43178 4.85404C5.38529 4.90053 5.3301 4.9374 5.26936 4.96256C5.20862 4.98772 5.14352 5.00067 5.07778 5.00067C5.01204 5.00067 4.94694 4.98772 4.8862 4.96256C4.82546 4.9374 4.77027 4.90053 4.72378 4.85404C4.67729 4.80755 4.64042 4.75236 4.61526 4.69162C4.5901 4.63088 4.57715 4.56578 4.57715 4.50004C4.57715 4.4343 4.5901 4.3692 4.61526 4.30846C4.64042 4.24772 4.67729 4.19253 4.72378 4.14604L7.72378 1.14604Z" fill="white"/>
</g>
<defs>
<clipPath id="clip0_0_1206">
<rect width="16" height="16" fill="white" transform="translate(0.078125)"/>
</clipPath>
</defs>
</svg>
